<svg xmlns="http://www.w3.org/2000/svg" viewBox="0 0 300 300"><path d="M150 150 L0 0" stroke="#C95716" stroke-width="1" opacity=".35"/><path d="M150 150 L47 83" stroke="#C95716" stroke-width="2" opacity=".35"/><path d="M150 150 L94 166" stroke="#C95716" stroke-width="3" opacity=".35"/><path d="M150 150 L141 249" stroke="#C95716" stroke-width="4" opacity=".35"/><path d="M150 150 L188 32" stroke="#C95716" stroke-width="1" opacity=".35"/><path d="M150 150 L235 115" stroke="#C95716" stroke-width="2" opacity=".35"/><path d="M150 150 L282 198" stroke="#C95716" stroke-width="3" opacity=".35"/><path d="M150 150 L29 281" stroke="#C95716" stroke-width="4" opacity=".35"/><path d="M150 150 L76 64" stroke="#C95716" stroke-width="1" opacity=".35"/><path d="M150 150 L123 147" stroke="#C95716" stroke-width="2" opacity=".35"/><path d="M150 150 L170 230" stroke="#C95716" stroke-width="3" opacity=".35"/><path d="M150 150 L217 13" stroke="#C95716" stroke-width="4" opacity=".35"/><circle cx="30" cy="40" r="3" fill="#C95716" opacity="0.25"/><circle cx="67" cy="99" r="10" fill="#C95716" opacity="0.55"/><circle cx="104" cy="158" r="17" fill="#C95716" opacity="0.85"/><circle cx="141" cy="217" r="6" fill="#C95716" opacity="0.45"/><circle cx="178" cy="276" r="13" fill="#C95716" opacity="0.75"/><circle cx="215" cy="95" r="20" fill="#C95716" opacity="0.35"/><circle cx="252" cy="154" r="9" fill="#C95716" opacity="0.65"/><circle cx="289" cy="213" r="16" fill="#C95716" opacity="0.25"/><circle cx="66" cy="272" r="5" fill="#C95716" opacity="0.55"/><circle cx="103" cy="91" r="12" fill="#C95716" opacity="0.85"/><circle cx="140" cy="150" r="19" fill="#C95716" opacity="0.45"/><circle cx="177" cy="209" r="8" fill="#C95716" opacity="0.75"/><circle cx="214" cy="268" r="15" fill="#C95716" opacity="0.35"/><circle cx="251" cy="87" r="4" fill="#C95716" opacity="0.65"/><circle cx="288" cy="146" r="11" fill="#C95716" opacity="0.25"/><circle cx="65" cy="205" r="18" fill="#C95716" opacity="0.55"/><circle cx="102" cy="264" r="7" fill="#C95716" opacity="0.85"/><circle cx="139" cy="83" r="14" fill="#C95716" opacity="0.45"/><circle cx="176" cy="142" r="3" fill="#C95716" opacity="0.75"/><circle cx="213" cy="201" r="10" fill="#C95716" opacity="0.35"/></svg>