<svg xmlns="http://www.w3.org/2000/svg" viewBox="0 0 300 520" fill="none" stroke="#C95716" stroke-width="4" stroke-linecap="round" stroke-linejoin="round"><path d="M150 28C68 42 38 130 45 250c7 126 55 222 105 236 52-15 99-110 106-236C263 129 232 42 150 28Z"/><path d="M92 198c23-21 47-21 68 0M160 198c23-21 47-21 68 0"/><path d="M105 214c19 12 33 12 48 0M173 214c18 12 33 12 48 0"/><path d="M150 190c-8 52-18 83-4 104 8 12 28 11 38 2"/><path d="M104 350c37 24 77 24 111 0M116 376c27 12 55 12 83 0"/><path d="M70 116c45-33 113-37 162 1M82 86c31-24 103-36 144-1"/></svg>